<mxfile host="app.diagrams.net" modified="2023-06-24T10:15:38.812Z" agent="Mozilla/5.0 (Macintosh; Intel Mac OS X 10_15_7) AppleWebKit/537.36 (KHTML, like Gecko) Chrome/114.0.0.0 Safari/537.36 Edg/114.0.1823.55" version="21.5.0" etag="ekiuA77B17wjn2kyGgBe" type="github">
  <diagram name="第 1 页" id="5aZU8YQsZ4uCZpM1JpMQ">
    <mxGraphModel>
      <root>
        <mxCell id="0" />
        <mxCell id="1" parent="0" />
      </root>
    </mxGraphModel>
  </diagram>
</mxfile>
